[FFMPEG_WRAPPER] Execut: ffmpeg -y -i "videos/processing/test1.mp4" -ss 00:00:00 -to 00:00:05 -c:v libx264 -c:a aac "tmp/cut_tmp.mp4"
ffmpeg version 7.0.2-3ubuntu1.1 Copyright (c) 2000-2024 the FFmpeg developers
  built with gcc 14 (Ubuntu 14.2.0-4ubuntu2)
  configuration: --prefix=/usr --extra-version=3ubuntu1.1 --toolchain=hardened --libdir=/usr/lib/x86_64-linux-gnu --incdir=/usr/include/x86_64-linux-gnu --arch=amd64 --enable-gpl --disable-stripping --disable-libmfx --disable-omx --enable-gnutls --enable-libaom --enable-libass --enable-libbs2b --enable-libcdio --enable-libcodec2 --enable-libdav1d --enable-libflite --enable-libfontconfig --enable-libfreetype --enable-libfribidi --enable-libglslang --enable-libgme --enable-libgsm --enable-libharfbuzz --enable-libmp3lame --enable-libmysofa --enable-libopenjpeg --enable-libopenmpt --enable-libopus --enable-librubberband --enable-libshine --enable-libsnappy --enable-libsoxr --enable-libspeex --enable-libtheora --enable-libtwolame --enable-libvidstab --enable-libvorbis --enable-libvpx --enable-libwebp --enable-libx265 --enable-libxml2 --enable-libxvid --enable-libzimg --enable-openal --enable-opencl --enable-opengl --disable-sndio --enable-libvpl --enable-libdc1394 --enable-libdrm --enable-libiec61883 --enable-chromaprint --enable-frei0r --enable-ladspa --enable-libbluray --enable-libcaca --enable-libdvdnav --enable-libdvdread --enable-libjack --enable-libpulse --enable-librabbitmq --enable-librist --enable-libsrt --enable-libssh --enable-libsvtav1 --enable-libx264 --enable-libzmq --enable-libzvbi --enable-lv2 --enable-sdl2 --enable-libplacebo --enable-librav1e --enable-pocketsphinx --enable-librsvg --enable-libjxl --enable-shared
  libavutil      59.  8.100 / 59.  8.100
  libavcodec     61.  3.100 / 61.  3.100
  libavformat    61.  1.100 / 61.  1.100
  libavdevice    61.  1.100 / 61.  1.100
  libavfilter    10.  1.100 / 10.  1.100
  libswscale      8.  1.100 /  8.  1.100
  libswresample   5.  1.100 /  5.  1.100
  libpostproc    58.  1.100 / 58.  1.100
Input #0, mov,mp4,m4a,3gp,3g2,mj2, from 'videos/processing/test1.mp4':
  Metadata:
    major_brand     : mp42
    minor_version   : 0
    compatible_brands: isommp42
    creation_time   : 2025-06-01T10:50:38.000000Z
    encoder         : Google
  Duration: 00:00:30.00, start: 0.000000, bitrate: 365 kb/s
  Stream #0:0[0x1](und): Video: h264 (Main) (avc1 / 0x31637661), yuv420p(tv, bt709, progressive), 512x288 [SAR 1:1 DAR 16:9], 233 kb/s, 30 fps, 30 tbr, 15360 tbn (default)
      Metadata:
        creation_time   : 2025-06-01T10:50:38.000000Z
        handler_name    : ISO Media file produced by Google Inc. Created on: 06/01/2025.
        vendor_id       : [0][0][0][0]
  Stream #0:1[0x2](und): Audio: aac (LC) (mp4a / 0x6134706D), 44100 Hz, stereo, fltp, 128 kb/s (default)
      Metadata:
        creation_time   : 2025-06-01T10:50:38.000000Z
        handler_name    : ISO Media file produced by Google Inc. Created on: 06/01/2025.
        vendor_id       : [0][0][0][0]
Stream mapping:
  Stream #0:0 -> #0:0 (h264 (native) -> h264 (libx264))
  Stream #0:1 -> #0:1 (aac (native) -> aac (native))
Press [q] to stop, [?] for help
[libx264 @ 0x58ece61d4900] using SAR=1/1
[libx264 @ 0x58ece61d4900] using cpu capabilities: MMX2 SSE2Fast SSSE3 SSE4.2 AVX FMA3 BMI2 AVX2
[libx264 @ 0x58ece61d4900] profile High, level 2.1, 4:2:0, 8-bit
[libx264 @ 0x58ece61d4900] 264 - core 164 r3108 31e19f9 - H.264/MPEG-4 AVC codec - Copyleft 2003-2023 - http://www.videolan.org/x264.html - options: cabac=1 ref=3 deblock=1:0:0 analyse=0x3:0x113 me=hex subme=7 psy=1 psy_rd=1.00:0.00 mixed_ref=1 me_range=16 chroma_me=1 trellis=1 8x8dct=1 cqm=0 deadzone=21,11 fast_pskip=1 chroma_qp_offset=-2 threads=1 lookahead_threads=1 sliced_threads=0 nr=0 decimate=1 interlaced=0 bluray_compat=0 constrained_intra=0 bframes=3 b_pyramid=2 b_adapt=1 b_bias=0 direct=1 weightb=1 open_gop=0 weightp=2 keyint=250 keyint_min=25 scenecut=40 intra_refresh=0 rc_lookahead=40 rc=crf mbtree=1 crf=23.0 qcomp=0.60 qpmin=0 qpmax=69 qpstep=4 ip_ratio=1.40 aq=1:1.00
Output #0, mp4, to 'tmp/cut_tmp.mp4':
  Metadata:
    major_brand     : mp42
    minor_version   : 0
    compatible_brands: isommp42
    encoder         : Lavf61.1.100
  Stream #0:0(und): Video: h264 (avc1 / 0x31637661), yuv420p(tv, bt709, progressive), 512x288 [SAR 1:1 DAR 16:9], q=2-31, 30 fps, 15360 tbn (default)
      Metadata:
        creation_time   : 2025-06-01T10:50:38.000000Z
        handler_name    : ISO Media file produced by Google Inc. Created on: 06/01/2025.
        vendor_id       : [0][0][0][0]
        encoder         : Lavc61.3.100 libx264
      Side data:
        cpb: bitrate max/min/avg: 0/0/0 buffer size: 0 vbv_delay: N/A
  Stream #0:1(und): Audio: aac (LC) (mp4a / 0x6134706D), 44100 Hz, stereo, fltp, 128 kb/s (default)
      Metadata:
        creation_time   : 2025-06-01T10:50:38.000000Z
        handler_name    : ISO Media file produced by Google Inc. Created on: 06/01/2025.
        vendor_id       : [0][0][0][0]
        encoder         : Lavc61.3.100 aac
frame=   17 fps=0.0 q=29.0 size=       0KiB time=00:00:00.50 bitrate=   0.8kbits/s speed=0.984x    frame=   23 fps= 23 q=29.0 size=       0KiB time=00:00:00.70 bitrate=   0.5kbits/s speed=0.693x    frame=   35 fps= 23 q=29.0 size=       0KiB time=00:00:01.10 bitrate=   0.3kbits/s speed=0.728x    frame=   46 fps= 23 q=29.0 size=       0KiB time=00:00:01.46 bitrate=   0.3kbits/s speed=0.73x    frame=   89 fps= 35 q=29.0 size=       0KiB time=00:00:02.90 bitrate=   0.1kbits/s speed=1.15x    [out#0/mp4 @ 0x58ece6300280] video:200KiB audio:78KiB subtitle:0KiB other streams:0KiB global headers:0KiB muxing overhead: 2.406179%
frame=  150 fps= 51 q=29.0 Lsize=     285KiB time=00:00:04.93 bitrate= 472.6kbits/s speed=1.66x    
[libx264 @ 0x58ece61d4900] frame I:1     Avg QP:21.42  size: 18268
[libx264 @ 0x58ece61d4900] frame P:68    Avg QP:23.52  size:  2031
[libx264 @ 0x58ece61d4900] frame B:81    Avg QP:26.68  size:   584
[libx264 @ 0x58ece61d4900] consecutive B-frames: 14.0% 34.7% 22.0% 29.3%
[libx264 @ 0x58ece61d4900] mb I  I16..4: 28.5% 26.9% 44.6%
[libx264 @ 0x58ece61d4900] mb P  I16..4:  1.8%  1.2%  1.0%  P16..4: 38.5% 10.4%  4.1%  0.0%  0.0%    skip:43.0%
[libx264 @ 0x58ece61d4900] mb B  I16..4:  0.1%  0.0%  0.2%  B16..8: 34.6%  4.1%  0.7%  direct: 0.3%  skip:60.0%  L0:46.5% L1:41.8% BI:11.6%
[libx264 @ 0x58ece61d4900] 8x8 transform intra:27.5% inter:39.0%
[libx264 @ 0x58ece61d4900] coded y,uvDC,uvAC intra: 44.4% 38.8% 5.6% inter: 6.9% 2.5% 0.0%
[libx264 @ 0x58ece61d4900] i16 v,h,dc,p:  2% 64%  9% 25%
[libx264 @ 0x58ece61d4900] i8 v,h,dc,ddl,ddr,vr,hd,vl,hu:  6% 58% 21%  1%  2%  2%  4%  1%  5%
[libx264 @ 0x58ece61d4900] i4 v,h,dc,ddl,ddr,vr,hd,vl,hu: 15% 27% 19%  6%  7%  6%  8%  5%  8%
[libx264 @ 0x58ece61d4900] i8c dc,h,v,p: 42% 41% 11%  6%
[libx264 @ 0x58ece61d4900] Weighted P-Frames: Y:0.0% UV:0.0%
[libx264 @ 0x58ece61d4900] ref P L0: 75.2% 12.0% 10.0%  2.8%
[libx264 @ 0x58ece61d4900] ref B L0: 91.9%  7.3%  0.7%
[libx264 @ 0x58ece61d4900] ref B L1: 99.6%  0.4%
[libx264 @ 0x58ece61d4900] kb/s:325.81
[aac @ 0x58ece625c200] Qavg: 3420.688
[FFMPEG_WRAPPER] Execut: ffmpeg -y -i "videos/processing/test1.mp4" -ss 00:00:05 -to 00:00:10 -c:v libx264 -c:a aac "tmp/cut_tmp.mp4"
ffmpeg version 7.0.2-3ubuntu1.1 Copyright (c) 2000-2024 the FFmpeg developers
  built with gcc 14 (Ubuntu 14.2.0-4ubuntu2)
  configuration: --prefix=/usr --extra-version=3ubuntu1.1 --toolchain=hardened --libdir=/usr/lib/x86_64-linux-gnu --incdir=/usr/include/x86_64-linux-gnu --arch=amd64 --enable-gpl --disable-stripping --disable-libmfx --disable-omx --enable-gnutls --enable-libaom --enable-libass --enable-libbs2b --enable-libcdio --enable-libcodec2 --enable-libdav1d --enable-libflite --enable-libfontconfig --enable-libfreetype --enable-libfribidi --enable-libglslang --enable-libgme --enable-libgsm --enable-libharfbuzz --enable-libmp3lame --enable-libmysofa --enable-libopenjpeg --enable-libopenmpt --enable-libopus --enable-librubberband --enable-libshine --enable-libsnappy --enable-libsoxr --enable-libspeex --enable-libtheora --enable-libtwolame --enable-libvidstab --enable-libvorbis --enable-libvpx --enable-libwebp --enable-libx265 --enable-libxml2 --enable-libxvid --enable-libzimg --enable-openal --enable-opencl --enable-opengl --disable-sndio --enable-libvpl --enable-libdc1394 --enable-libdrm --enable-libiec61883 --enable-chromaprint --enable-frei0r --enable-ladspa --enable-libbluray --enable-libcaca --enable-libdvdnav --enable-libdvdread --enable-libjack --enable-libpulse --enable-librabbitmq --enable-librist --enable-libsrt --enable-libssh --enable-libsvtav1 --enable-libx264 --enable-libzmq --enable-libzvbi --enable-lv2 --enable-sdl2 --enable-libplacebo --enable-librav1e --enable-pocketsphinx --enable-librsvg --enable-libjxl --enable-shared
  libavutil      59.  8.100 / 59.  8.100
  libavcodec     61.  3.100 / 61.  3.100
  libavformat    61.  1.100 / 61.  1.100
  libavdevice    61.  1.100 / 61.  1.100
  libavfilter    10.  1.100 / 10.  1.100
  libswscale      8.  1.100 /  8.  1.100
  libswresample   5.  1.100 /  5.  1.100
  libpostproc    58.  1.100 / 58.  1.100
Input #0, mov,mp4,m4a,3gp,3g2,mj2, from 'videos/processing/test1.mp4':
  Metadata:
    major_brand     : mp42
    minor_version   : 0
    compatible_brands: isommp42
    creation_time   : 2025-06-01T10:50:38.000000Z
    encoder         : Google
  Duration: 00:00:30.00, start: 0.000000, bitrate: 365 kb/s
  Stream #0:0[0x1](und): Video: h264 (Main) (avc1 / 0x31637661), yuv420p(tv, bt709, progressive), 512x288 [SAR 1:1 DAR 16:9], 233 kb/s, 30 fps, 30 tbr, 15360 tbn (default)
      Metadata:
        creation_time   : 2025-06-01T10:50:38.000000Z
        handler_name    : ISO Media file produced by Google Inc. Created on: 06/01/2025.
        vendor_id       : [0][0][0][0]
  Stream #0:1[0x2](und): Audio: aac (LC) (mp4a / 0x6134706D), 44100 Hz, stereo, fltp, 128 kb/s (default)
      Metadata:
        creation_time   : 2025-06-01T10:50:38.000000Z
        handler_name    : ISO Media file produced by Google Inc. Created on: 06/01/2025.
        vendor_id       : [0][0][0][0]
Stream mapping:
  Stream #0:0 -> #0:0 (h264 (native) -> h264 (libx264))
  Stream #0:1 -> #0:1 (aac (native) -> aac (native))
Press [q] to stop, [?] for help
[libx264 @ 0x556280c1d900] using SAR=1/1
[libx264 @ 0x556280c1d900] using cpu capabilities: MMX2 SSE2Fast SSSE3 SSE4.2 AVX FMA3 BMI2 AVX2
[libx264 @ 0x556280c1d900] profile High, level 2.1, 4:2:0, 8-bit
[libx264 @ 0x556280c1d900] 264 - core 164 r3108 31e19f9 - H.264/MPEG-4 AVC codec - Copyleft 2003-2023 - http://www.videolan.org/x264.html - options: cabac=1 ref=3 deblock=1:0:0 analyse=0x3:0x113 me=hex subme=7 psy=1 psy_rd=1.00:0.00 mixed_ref=1 me_range=16 chroma_me=1 trellis=1 8x8dct=1 cqm=0 deadzone=21,11 fast_pskip=1 chroma_qp_offset=-2 threads=1 lookahead_threads=1 sliced_threads=0 nr=0 decimate=1 interlaced=0 bluray_compat=0 constrained_intra=0 bframes=3 b_pyramid=2 b_adapt=1 b_bias=0 direct=1 weightb=1 open_gop=0 weightp=2 keyint=250 keyint_min=25 scenecut=40 intra_refresh=0 rc_lookahead=40 rc=crf mbtree=1 crf=23.0 qcomp=0.60 qpmin=0 qpmax=69 qpstep=4 ip_ratio=1.40 aq=1:1.00
Output #0, mp4, to 'tmp/cut_tmp.mp4':
  Metadata:
    major_brand     : mp42
    minor_version   : 0
    compatible_brands: isommp42
    encoder         : Lavf61.1.100
  Stream #0:0(und): Video: h264 (avc1 / 0x31637661), yuv420p(tv, bt709, progressive), 512x288 [SAR 1:1 DAR 16:9], q=2-31, 30 fps, 15360 tbn (default)
      Metadata:
        creation_time   : 2025-06-01T10:50:38.000000Z
        handler_name    : ISO Media file produced by Google Inc. Created on: 06/01/2025.
        vendor_id       : [0][0][0][0]
        encoder         : Lavc61.3.100 libx264
      Side data:
        cpb: bitrate max/min/avg: 0/0/0 buffer size: 0 vbv_delay: N/A
  Stream #0:1(und): Audio: aac (LC) (mp4a / 0x6134706D), 44100 Hz, stereo, fltp, 128 kb/s (default)
      Metadata:
        creation_time   : 2025-06-01T10:50:38.000000Z
        handler_name    : ISO Media file produced by Google Inc. Created on: 06/01/2025.
        vendor_id       : [0][0][0][0]
        encoder         : Lavc61.3.100 aac
frame=    0 fps=0.0 q=0.0 size=       0KiB time=N/A bitrate=N/A speed=N/A    frame=    3 fps=3.0 q=29.0 size=       0KiB time=00:00:00.03 bitrate=  11.5kbits/s speed=0.033x    frame=   11 fps=7.3 q=29.0 size=       0KiB time=00:00:00.30 bitrate=   1.3kbits/s speed=0.198x    frame=   20 fps=9.9 q=29.0 size=       0KiB time=00:00:00.60 bitrate=   0.6kbits/s speed=0.298x    frame=   30 fps= 12 q=29.0 size=       0KiB time=00:00:00.93 bitrate=   0.4kbits/s speed=0.372x    frame=   48 fps= 16 q=29.0 size=       0KiB time=00:00:01.53 bitrate=   0.3kbits/s speed=0.509x    frame=  100 fps= 28 q=29.0 size=       0KiB time=N/A bitrate=N/A speed=N/A    [out#0/mp4 @ 0x556280d49280] video:246KiB audio:83KiB subtitle:0KiB other streams:0KiB global headers:0KiB muxing overhead: 2.022765%
frame=  150 fps= 39 q=29.0 Lsize=     336KiB time=00:00:04.93 bitrate= 557.4kbits/s speed=1.28x    
[libx264 @ 0x556280c1d900] frame I:1     Avg QP:22.47  size: 10769
[libx264 @ 0x556280c1d900] frame P:72    Avg QP:23.28  size:  2466
[libx264 @ 0x556280c1d900] frame B:77    Avg QP:26.54  size:   819
[libx264 @ 0x556280c1d900] consecutive B-frames: 20.7% 28.0% 14.0% 37.3%
[libx264 @ 0x556280c1d900] mb I  I16..4: 28.3% 48.8% 22.9%
[libx264 @ 0x556280c1d900] mb P  I16..4:  0.9%  1.1%  1.7%  P16..4: 30.1%  9.8%  4.0%  0.0%  0.0%    skip:52.6%
[libx264 @ 0x556280c1d900] mb B  I16..4:  0.0%  0.0%  0.4%  B16..8: 31.1%  5.4%  1.1%  direct: 0.3%  skip:61.5%  L0:48.8% L1:36.3% BI:14.8%
[libx264 @ 0x556280c1d900] 8x8 transform intra:32.2% inter:26.9%
[libx264 @ 0x556280c1d900] coded y,uvDC,uvAC intra: 64.7% 56.9% 11.2% inter: 8.1% 2.8% 0.0%
[libx264 @ 0x556280c1d900] i16 v,h,dc,p:  1% 67%  7% 24%
[libx264 @ 0x556280c1d900] i8 v,h,dc,ddl,ddr,vr,hd,vl,hu:  5% 50% 16%  4%  4%  2%  7%  3%  8%
[libx264 @ 0x556280c1d900] i4 v,h,dc,ddl,ddr,vr,hd,vl,hu: 13% 31% 17%  6%  7%  5%  9%  5%  8%
[libx264 @ 0x556280c1d900] i8c dc,h,v,p: 36% 41% 12% 10%
[libx264 @ 0x556280c1d900] Weighted P-Frames: Y:1.4% UV:0.0%
[libx264 @ 0x556280c1d900] ref P L0: 78.3% 11.2%  8.4%  2.0%  0.1%
[libx264 @ 0x556280c1d900] ref B L0: 95.6%  3.9%  0.5%
[libx264 @ 0x556280c1d900] ref B L1: 98.9%  1.1%
[libx264 @ 0x556280c1d900] kb/s:402.24
[aac @ 0x556280ca5200] Qavg: 999.786
[FFMPEG_WRAPPER] Execut: ffmpeg -y -i "videos/processing/test1.mp4" -ss 00:00:10 -c:v libx264 -c:a aac "tmp/cut_tmp.mp4"
ffmpeg version 7.0.2-3ubuntu1.1 Copyright (c) 2000-2024 the FFmpeg developers
  built with gcc 14 (Ubuntu 14.2.0-4ubuntu2)
  configuration: --prefix=/usr --extra-version=3ubuntu1.1 --toolchain=hardened --libdir=/usr/lib/x86_64-linux-gnu --incdir=/usr/include/x86_64-linux-gnu --arch=amd64 --enable-gpl --disable-stripping --disable-libmfx --disable-omx --enable-gnutls --enable-libaom --enable-libass --enable-libbs2b --enable-libcdio --enable-libcodec2 --enable-libdav1d --enable-libflite --enable-libfontconfig --enable-libfreetype --enable-libfribidi --enable-libglslang --enable-libgme --enable-libgsm --enable-libharfbuzz --enable-libmp3lame --enable-libmysofa --enable-libopenjpeg --enable-libopenmpt --enable-libopus --enable-librubberband --enable-libshine --enable-libsnappy --enable-libsoxr --enable-libspeex --enable-libtheora --enable-libtwolame --enable-libvidstab --enable-libvorbis --enable-libvpx --enable-libwebp --enable-libx265 --enable-libxml2 --enable-libxvid --enable-libzimg --enable-openal --enable-opencl --enable-opengl --disable-sndio --enable-libvpl --enable-libdc1394 --enable-libdrm --enable-libiec61883 --enable-chromaprint --enable-frei0r --enable-ladspa --enable-libbluray --enable-libcaca --enable-libdvdnav --enable-libdvdread --enable-libjack --enable-libpulse --enable-librabbitmq --enable-librist --enable-libsrt --enable-libssh --enable-libsvtav1 --enable-libx264 --enable-libzmq --enable-libzvbi --enable-lv2 --enable-sdl2 --enable-libplacebo --enable-librav1e --enable-pocketsphinx --enable-librsvg --enable-libjxl --enable-shared
  libavutil      59.  8.100 / 59.  8.100
  libavcodec     61.  3.100 / 61.  3.100
  libavformat    61.  1.100 / 61.  1.100
  libavdevice    61.  1.100 / 61.  1.100
  libavfilter    10.  1.100 / 10.  1.100
  libswscale      8.  1.100 /  8.  1.100
  libswresample   5.  1.100 /  5.  1.100
  libpostproc    58.  1.100 / 58.  1.100
Input #0, mov,mp4,m4a,3gp,3g2,mj2, from 'videos/processing/test1.mp4':
  Metadata:
    major_brand     : mp42
    minor_version   : 0
    compatible_brands: isommp42
    creation_time   : 2025-06-01T10:50:38.000000Z
    encoder         : Google
  Duration: 00:00:30.00, start: 0.000000, bitrate: 365 kb/s
  Stream #0:0[0x1](und): Video: h264 (Main) (avc1 / 0x31637661), yuv420p(tv, bt709, progressive), 512x288 [SAR 1:1 DAR 16:9], 233 kb/s, 30 fps, 30 tbr, 15360 tbn (default)
      Metadata:
        creation_time   : 2025-06-01T10:50:38.000000Z
        handler_name    : ISO Media file produced by Google Inc. Created on: 06/01/2025.
        vendor_id       : [0][0][0][0]
  Stream #0:1[0x2](und): Audio: aac (LC) (mp4a / 0x6134706D), 44100 Hz, stereo, fltp, 128 kb/s (default)
      Metadata:
        creation_time   : 2025-06-01T10:50:38.000000Z
        handler_name    : ISO Media file produced by Google Inc. Created on: 06/01/2025.
        vendor_id       : [0][0][0][0]
Stream mapping:
  Stream #0:0 -> #0:0 (h264 (native) -> h264 (libx264))
  Stream #0:1 -> #0:1 (aac (native) -> aac (native))
Press [q] to stop, [?] for help
[libx264 @ 0x56ae2b8a9900] using SAR=1/1
[libx264 @ 0x56ae2b8a9900] using cpu capabilities: MMX2 SSE2Fast SSSE3 SSE4.2 AVX FMA3 BMI2 AVX2
[libx264 @ 0x56ae2b8a9900] profile High, level 2.1, 4:2:0, 8-bit
[libx264 @ 0x56ae2b8a9900] 264 - core 164 r3108 31e19f9 - H.264/MPEG-4 AVC codec - Copyleft 2003-2023 - http://www.videolan.org/x264.html - options: cabac=1 ref=3 deblock=1:0:0 analyse=0x3:0x113 me=hex subme=7 psy=1 psy_rd=1.00:0.00 mixed_ref=1 me_range=16 chroma_me=1 trellis=1 8x8dct=1 cqm=0 deadzone=21,11 fast_pskip=1 chroma_qp_offset=-2 threads=1 lookahead_threads=1 sliced_threads=0 nr=0 decimate=1 interlaced=0 bluray_compat=0 constrained_intra=0 bframes=3 b_pyramid=2 b_adapt=1 b_bias=0 direct=1 weightb=1 open_gop=0 weightp=2 keyint=250 keyint_min=25 scenecut=40 intra_refresh=0 rc_lookahead=40 rc=crf mbtree=1 crf=23.0 qcomp=0.60 qpmin=0 qpmax=69 qpstep=4 ip_ratio=1.40 aq=1:1.00
Output #0, mp4, to 'tmp/cut_tmp.mp4':
  Metadata:
    major_brand     : mp42
    minor_version   : 0
    compatible_brands: isommp42
    encoder         : Lavf61.1.100
  Stream #0:0(und): Video: h264 (avc1 / 0x31637661), yuv420p(tv, bt709, progressive), 512x288 [SAR 1:1 DAR 16:9], q=2-31, 30 fps, 15360 tbn (default)
      Metadata:
        creation_time   : 2025-06-01T10:50:38.000000Z
        handler_name    : ISO Media file produced by Google Inc. Created on: 06/01/2025.
        vendor_id       : [0][0][0][0]
        encoder         : Lavc61.3.100 libx264
      Side data:
        cpb: bitrate max/min/avg: 0/0/0 buffer size: 0 vbv_delay: N/A
  Stream #0:1(und): Audio: aac (LC) (mp4a / 0x6134706D), 44100 Hz, stereo, fltp, 128 kb/s (default)
      Metadata:
        creation_time   : 2025-06-01T10:50:38.000000Z
        handler_name    : ISO Media file produced by Google Inc. Created on: 06/01/2025.
        vendor_id       : [0][0][0][0]
        encoder         : Lavc61.3.100 aac
frame=    0 fps=0.0 q=0.0 size=       0KiB time=N/A bitrate=N/A speed=N/A    frame=    1 fps=1.0 q=29.0 size=       0KiB time=-00:00:00.03 bitrate=N/A speed=N/A    frame=   10 fps=6.6 q=29.0 size=       0KiB time=00:00:00.26 bitrate=   1.4kbits/s speed=0.176x    frame=   17 fps=8.4 q=29.0 size=       0KiB time=00:00:00.50 bitrate=   0.8kbits/s speed=0.248x    frame=   31 fps= 12 q=29.0 size=       0KiB time=00:00:00.96 bitrate=   0.4kbits/s speed=0.384x    frame=   43 fps= 14 q=29.0 size=       0KiB time=00:00:01.36 bitrate=   0.3kbits/s speed=0.453x    frame=   59 fps= 17 q=29.0 size=       0KiB time=00:00:01.90 bitrate=   0.2kbits/s speed=0.54x    frame=  101 fps= 25 q=29.0 size=       0KiB time=00:00:03.30 bitrate=   0.1kbits/s speed=0.821x    frame=  150 fps= 33 q=29.0 size=     256KiB time=00:00:04.93 bitrate= 425.2kbits/s speed=1.09x    frame=  206 fps= 41 q=29.0 size=     256KiB time=00:00:06.80 bitrate= 308.5kbits/s speed=1.35x    frame=  256 fps= 46 q=29.0 size=     512KiB time=00:00:08.46 bitrate= 495.4kbits/s speed=1.53x    frame=  305 fps= 51 q=29.0 size=     512KiB time=00:00:10.10 bitrate= 415.3kbits/s speed=1.68x    frame=  352 fps= 54 q=29.0 size=     512KiB time=00:00:11.66 bitrate= 359.5kbits/s speed=1.79x    frame=  407 fps= 58 q=29.0 size=     768KiB time=00:00:13.50 bitrate= 466.1kbits/s speed=1.92x    frame=  460 fps= 61 q=29.0 size=     768KiB time=00:00:15.26 bitrate= 412.1kbits/s speed=2.03x    frame=  505 fps= 63 q=29.0 size=    1024KiB time=00:00:16.76 bitrate= 500.3kbits/s speed=2.09x    frame=  532 fps= 62 q=29.0 size=    1024KiB time=00:00:17.66 bitrate= 474.8kbits/s speed=2.07x    frame=  587 fps= 65 q=29.0 size=    1280KiB time=N/A bitrate=N/A speed=N/A    [out#0/mp4 @ 0x56ae2b9d5280] video:1001KiB audio:322KiB subtitle:0KiB other streams:0KiB global headers:0KiB muxing overhead: 1.664362%
frame=  600 fps= 66 q=29.0 Lsize=    1346KiB time=00:00:19.93 bitrate= 553.0kbits/s speed=2.18x    
[libx264 @ 0x56ae2b8a9900] frame I:3     Avg QP:20.39  size: 15345
[libx264 @ 0x56ae2b8a9900] frame P:270   Avg QP:23.77  size:  2676
[libx264 @ 0x56ae2b8a9900] frame B:327   Avg QP:27.72  size:   783
[libx264 @ 0x56ae2b8a9900] consecutive B-frames: 16.3% 27.7% 16.0% 40.0%
[libx264 @ 0x56ae2b8a9900] mb I  I16..4: 22.4% 48.3% 29.3%
[libx264 @ 0x56ae2b8a9900] mb P  I16..4:  2.3%  1.7%  1.5%  P16..4: 38.5% 11.1%  3.8%  0.0%  0.0%    skip:41.1%
[libx264 @ 0x56ae2b8a9900] mb B  I16..4:  0.1%  0.1%  0.4%  B16..8: 33.3%  5.0%  1.3%  direct: 0.5%  skip:59.4%  L0:48.8% L1:41.0% BI:10.2%
[libx264 @ 0x56ae2b8a9900] 8x8 transform intra:32.1% inter:30.5%
[libx264 @ 0x56ae2b8a9900] coded y,uvDC,uvAC intra: 47.1% 43.0% 7.8% inter: 8.9% 3.0% 0.0%
[libx264 @ 0x56ae2b8a9900] i16 v,h,dc,p:  2% 66%  9% 22%
[libx264 @ 0x56ae2b8a9900] i8 v,h,dc,ddl,ddr,vr,hd,vl,hu:  5% 56% 20%  2%  2%  2%  5%  2%  5%
[libx264 @ 0x56ae2b8a9900] i4 v,h,dc,ddl,ddr,vr,hd,vl,hu: 13% 26% 21%  5%  8%  7%  9%  4%  6%
[libx264 @ 0x56ae2b8a9900] i8c dc,h,v,p: 42% 40% 10%  8%
[libx264 @ 0x56ae2b8a9900] Weighted P-Frames: Y:0.4% UV:0.4%
[libx264 @ 0x56ae2b8a9900] ref P L0: 76.1% 11.4%  9.7%  2.8%  0.0%
[libx264 @ 0x56ae2b8a9900] ref B L0: 94.2%  5.1%  0.6%
[libx264 @ 0x56ae2b8a9900] ref B L1: 98.4%  1.6%
[libx264 @ 0x56ae2b8a9900] kb/s:409.90
[aac @ 0x56ae2b931200] Qavg: 747.138
[FFMPEG_WRAPPER] Execut: ffmpeg -y -i "/home/vboxuser/PCD/Proiect/PCD/tmp/part2.mp4" -filter_complex "[0:v]setpts=PTS/2.0[v];[0:a]atempo=2.000[a]" -map "[v]" -map "[a]" -preset ultrafast "/home/vboxuser/PCD/Proiect/PCD/tmp/part2_mod.mp4"
ffmpeg version 7.0.2-3ubuntu1.1 Copyright (c) 2000-2024 the FFmpeg developers
  built with gcc 14 (Ubuntu 14.2.0-4ubuntu2)
  configuration: --prefix=/usr --extra-version=3ubuntu1.1 --toolchain=hardened --libdir=/usr/lib/x86_64-linux-gnu --incdir=/usr/include/x86_64-linux-gnu --arch=amd64 --enable-gpl --disable-stripping --disable-libmfx --disable-omx --enable-gnutls --enable-libaom --enable-libass --enable-libbs2b --enable-libcdio --enable-libcodec2 --enable-libdav1d --enable-libflite --enable-libfontconfig --enable-libfreetype --enable-libfribidi --enable-libglslang --enable-libgme --enable-libgsm --enable-libharfbuzz --enable-libmp3lame --enable-libmysofa --enable-libopenjpeg --enable-libopenmpt --enable-libopus --enable-librubberband --enable-libshine --enable-libsnappy --enable-libsoxr --enable-libspeex --enable-libtheora --enable-libtwolame --enable-libvidstab --enable-libvorbis --enable-libvpx --enable-libwebp --enable-libx265 --enable-libxml2 --enable-libxvid --enable-libzimg --enable-openal --enable-opencl --enable-opengl --disable-sndio --enable-libvpl --enable-libdc1394 --enable-libdrm --enable-libiec61883 --enable-chromaprint --enable-frei0r --enable-ladspa --enable-libbluray --enable-libcaca --enable-libdvdnav --enable-libdvdread --enable-libjack --enable-libpulse --enable-librabbitmq --enable-librist --enable-libsrt --enable-libssh --enable-libsvtav1 --enable-libx264 --enable-libzmq --enable-libzvbi --enable-lv2 --enable-sdl2 --enable-libplacebo --enable-librav1e --enable-pocketsphinx --enable-librsvg --enable-libjxl --enable-shared
  libavutil      59.  8.100 / 59.  8.100
  libavcodec     61.  3.100 / 61.  3.100
  libavformat    61.  1.100 / 61.  1.100
  libavdevice    61.  1.100 / 61.  1.100
  libavfilter    10.  1.100 / 10.  1.100
  libswscale      8.  1.100 /  8.  1.100
  libswresample   5.  1.100 /  5.  1.100
  libpostproc    58.  1.100 / 58.  1.100
Input #0, mov,mp4,m4a,3gp,3g2,mj2, from '/home/vboxuser/PCD/Proiect/PCD/tmp/part2.mp4':
  Metadata:
    major_brand     : isom
    minor_version   : 512
    compatible_brands: isomiso2avc1mp41
    encoder         : Lavf61.1.100
  Duration: 00:00:05.00, start: 0.000000, bitrate: 549 kb/s
  Stream #0:0[0x1](und): Video: h264 (High) (avc1 / 0x31637661), yuv420p(tv, bt709, progressive), 512x288 [SAR 1:1 DAR 16:9], 403 kb/s, 30 fps, 30 tbr, 15360 tbn (default)
      Metadata:
        handler_name    : ISO Media file produced by Google Inc. Created on: 06/01/2025.
        vendor_id       : [0][0][0][0]
        encoder         : Lavc61.3.100 libx264
  Stream #0:1[0x2](und): Audio: aac (LC) (mp4a / 0x6134706D), 44100 Hz, stereo, fltp, 135 kb/s (default)
      Metadata:
        handler_name    : ISO Media file produced by Google Inc. Created on: 06/01/2025.
        vendor_id       : [0][0][0][0]
Stream mapping:
  Stream #0:0 (h264) -> setpts:default
  Stream #0:1 (aac) -> atempo:default
  setpts:default -> Stream #0:0 (libx264)
  atempo:default -> Stream #0:1 (aac)
Press [q] to stop, [?] for help
[vost#0:0/libx264 @ 0x5c474de88380] No information about the input framerate is available. Falling back to a default value of 25fps. Use the -r option if you want a different framerate.
[libx264 @ 0x5c474dde2d80] using SAR=1/1
[libx264 @ 0x5c474dde2d80] using cpu capabilities: MMX2 SSE2Fast SSSE3 SSE4.2 AVX FMA3 BMI2 AVX2
[libx264 @ 0x5c474dde2d80] profile Constrained Baseline, level 2.1, 4:2:0, 8-bit
[libx264 @ 0x5c474dde2d80] 264 - core 164 r3108 31e19f9 - H.264/MPEG-4 AVC codec - Copyleft 2003-2023 - http://www.videolan.org/x264.html - options: cabac=0 ref=1 deblock=0:0:0 analyse=0:0 me=dia subme=0 psy=1 psy_rd=1.00:0.00 mixed_ref=0 me_range=16 chroma_me=1 trellis=0 8x8dct=0 cqm=0 deadzone=21,11 fast_pskip=1 chroma_qp_offset=0 threads=1 lookahead_threads=1 sliced_threads=0 nr=0 decimate=1 interlaced=0 bluray_compat=0 constrained_intra=0 bframes=0 weightp=0 keyint=250 keyint_min=25 scenecut=0 intra_refresh=0 rc=crf mbtree=0 crf=23.0 qcomp=0.60 qpmin=0 qpmax=69 qpstep=4 ip_ratio=1.40 aq=0
Output #0, mp4, to '/home/vboxuser/PCD/Proiect/PCD/tmp/part2_mod.mp4':
  Metadata:
    major_brand     : isom
    minor_version   : 512
    compatible_brands: isomiso2avc1mp41
    encoder         : Lavf61.1.100
  Stream #0:0: Video: h264 (avc1 / 0x31637661), yuv420p(tv, bt709, progressive), 512x288 [SAR 1:1 DAR 16:9], q=2-31, 25 fps, 12800 tbn
      Metadata:
        encoder         : Lavc61.3.100 libx264
      Side data:
        cpb: bitrate max/min/avg: 0/0/0 buffer size: 0 vbv_delay: N/A
  Stream #0:1: Audio: aac (LC) (mp4a / 0x6134706D), 44100 Hz, stereo, fltp, 128 kb/s
      Metadata:
        encoder         : Lavc61.3.100 aac
frame=   63 fps=0.0 q=24.0 size=     256KiB time=N/A bitrate=N/A dup=0 drop=86 speed=N/A    [out#0/mp4 @ 0x5c474dded880] video:482KiB audio:42KiB subtitle:0KiB other streams:0KiB global headers:0KiB muxing overhead: 0.567198%
frame=   64 fps=0.0 q=24.0 Lsize=     527KiB time=00:00:02.50 bitrate=1723.3kbits/s dup=0 drop=86 speed=4.67x    
[libx264 @ 0x5c474dde2d80] frame I:1     Avg QP:20.00  size: 18558
[libx264 @ 0x5c474dde2d80] frame P:63    Avg QP:24.21  size:  7537
[libx264 @ 0x5c474dde2d80] mb I  I16..4: 100.0%  0.0%  0.0%
[libx264 @ 0x5c474dde2d80] mb P  I16..4:  3.3%  0.0%  0.0%  P16..4: 44.4%  0.0%  0.0%  0.0%  0.0%    skip:52.3%
[libx264 @ 0x5c474dde2d80] coded y,uvDC,uvAC intra: 59.8% 51.3% 16.5% inter: 27.6% 7.9% 0.6%
[libx264 @ 0x5c474dde2d80] i16 v,h,dc,p: 10% 55% 19% 16%
[libx264 @ 0x5c474dde2d80] i8c dc,h,v,p: 31% 44% 12% 13%
[libx264 @ 0x5c474dde2d80] kb/s:1541.83
[aac @ 0x5c474de87340] Qavg: 534.767
[FFMPEG_WRAPPER] Execut: ffmpeg -y -f concat -safe 0 -i "/home/vboxuser/PCD/Proiect/PCD/tmp/concat_list.txt" -c copy "videos/processing/test1.mp4"
ffmpeg version 7.0.2-3ubuntu1.1 Copyright (c) 2000-2024 the FFmpeg developers
  built with gcc 14 (Ubuntu 14.2.0-4ubuntu2)
  configuration: --prefix=/usr --extra-version=3ubuntu1.1 --toolchain=hardened --libdir=/usr/lib/x86_64-linux-gnu --incdir=/usr/include/x86_64-linux-gnu --arch=amd64 --enable-gpl --disable-stripping --disable-libmfx --disable-omx --enable-gnutls --enable-libaom --enable-libass --enable-libbs2b --enable-libcdio --enable-libcodec2 --enable-libdav1d --enable-libflite --enable-libfontconfig --enable-libfreetype --enable-libfribidi --enable-libglslang --enable-libgme --enable-libgsm --enable-libharfbuzz --enable-libmp3lame --enable-libmysofa --enable-libopenjpeg --enable-libopenmpt --enable-libopus --enable-librubberband --enable-libshine --enable-libsnappy --enable-libsoxr --enable-libspeex --enable-libtheora --enable-libtwolame --enable-libvidstab --enable-libvorbis --enable-libvpx --enable-libwebp --enable-libx265 --enable-libxml2 --enable-libxvid --enable-libzimg --enable-openal --enable-opencl --enable-opengl --disable-sndio --enable-libvpl --enable-libdc1394 --enable-libdrm --enable-libiec61883 --enable-chromaprint --enable-frei0r --enable-ladspa --enable-libbluray --enable-libcaca --enable-libdvdnav --enable-libdvdread --enable-libjack --enable-libpulse --enable-librabbitmq --enable-librist --enable-libsrt --enable-libssh --enable-libsvtav1 --enable-libx264 --enable-libzmq --enable-libzvbi --enable-lv2 --enable-sdl2 --enable-libplacebo --enable-librav1e --enable-pocketsphinx --enable-librsvg --enable-libjxl --enable-shared
  libavutil      59.  8.100 / 59.  8.100
  libavcodec     61.  3.100 / 61.  3.100
  libavformat    61.  1.100 / 61.  1.100
  libavdevice    61.  1.100 / 61.  1.100
  libavfilter    10.  1.100 / 10.  1.100
  libswscale      8.  1.100 /  8.  1.100
  libswresample   5.  1.100 /  5.  1.100
  libpostproc    58.  1.100 / 58.  1.100
[mov,mp4,m4a,3gp,3g2,mj2 @ 0x56345c439340] Auto-inserting h264_mp4toannexb bitstream filter
Input #0, concat, from '/home/vboxuser/PCD/Proiect/PCD/tmp/concat_list.txt':
  Duration: N/A, start: -0.023220, bitrate: 454 kb/s
  Stream #0:0(und): Video: h264 (High) (avc1 / 0x31637661), yuv420p(tv, bt709, progressive), 512x288 [SAR 1:1 DAR 16:9], 326 kb/s, 30 fps, 30 tbr, 15360 tbn
      Metadata:
        handler_name    : ISO Media file produced by Google Inc. Created on: 06/01/2025.
        vendor_id       : [0][0][0][0]
        encoder         : Lavc61.3.100 libx264
  Stream #0:1(und): Audio: aac (LC) (mp4a / 0x6134706D), 44100 Hz, stereo, fltp, 127 kb/s
      Metadata:
        handler_name    : ISO Media file produced by Google Inc. Created on: 06/01/2025.
        vendor_id       : [0][0][0][0]
Stream mapping:
  Stream #0:0 -> #0:0 (copy)
  Stream #0:1 -> #0:1 (copy)
Output #0, mp4, to 'videos/processing/test1.mp4':
  Metadata:
    encoder         : Lavf61.1.100
  Stream #0:0(und): Video: h264 (High) (avc1 / 0x31637661), yuv420p(tv, bt709, progressive), 512x288 [SAR 1:1 DAR 16:9], q=2-31, 326 kb/s, 30 fps, 30 tbr, 15360 tbn
      Metadata:
        handler_name    : ISO Media file produced by Google Inc. Created on: 06/01/2025.
        vendor_id       : [0][0][0][0]
        encoder         : Lavc61.3.100 libx264
  Stream #0:1(und): Audio: aac (LC) (mp4a / 0x6134706D), 44100 Hz, stereo, fltp, 127 kb/s
      Metadata:
        handler_name    : ISO Media file produced by Google Inc. Created on: 06/01/2025.
        vendor_id       : [0][0][0][0]
Press [q] to stop, [?] for help
[mov,mp4,m4a,3gp,3g2,mj2 @ 0x56345c439340] Auto-inserting h264_mp4toannexb bitstream filter
[concat @ 0x56345c430100] DTS 64000 < 75264 out of order
[aost#0:1/copy @ 0x56345c4ebc80] Non-monotonic DTS; previous: 221184, current: 220500; changing to 221185. This may result in incorrect timestamps in the output file.
[vost#0:0/copy @ 0x56345c4e8440] Non-monotonic DTS; previous: 75621, current: 64357; changing to 75622. This may result in incorrect timestamps in the output file.
[vost#0:0/copy @ 0x56345c4e8440] Non-monotonic DTS; previous: 75622, current: 64869; changing to 75623. This may result in incorrect timestamps in the output file.
[vost#0:0/copy @ 0x56345c4e8440] Non-monotonic DTS; previous: 75623, current: 65381; changing to 75624. This may result in incorrect timestamps in the output file.
[vost#0:0/copy @ 0x56345c4e8440] Non-monotonic DTS; previous: 75624, current: 65893; changing to 75625. This may result in incorrect timestamps in the output file.
[vost#0:0/copy @ 0x56345c4e8440] Non-monotonic DTS; previous: 75625, current: 66405; changing to 75626. This may result in incorrect timestamps in the output file.
[vost#0:0/copy @ 0x56345c4e8440] Non-monotonic DTS; previous: 75626, current: 66917; changing to 75627. This may result in incorrect timestamps in the output file.
[vost#0:0/copy @ 0x56345c4e8440] Non-monotonic DTS; previous: 75627, current: 67429; changing to 75628. This may result in incorrect timestamps in the output file.
[vost#0:0/copy @ 0x56345c4e8440] Non-monotonic DTS; previous: 75628, current: 67941; changing to 75629. This may result in incorrect timestamps in the output file.
[vost#0:0/copy @ 0x56345c4e8440] Non-monotonic DTS; previous: 75629, current: 68453; changing to 75630. This may result in incorrect timestamps in the output file.
[vost#0:0/copy @ 0x56345c4e8440] Non-monotonic DTS; previous: 75630, current: 68965; changing to 75631. This may result in incorrect timestamps in the output file.
[vost#0:0/copy @ 0x56345c4e8440] Non-monotonic DTS; previous: 75631, current: 69477; changing to 75632. This may result in incorrect timestamps in the output file.
[vost#0:0/copy @ 0x56345c4e8440] Non-monotonic DTS; previous: 75632, current: 69989; changing to 75633. This may result in incorrect timestamps in the output file.
[vost#0:0/copy @ 0x56345c4e8440] Non-monotonic DTS; previous: 75633, current: 70501; changing to 75634. This may result in incorrect timestamps in the output file.
[vost#0:0/copy @ 0x56345c4e8440] Non-monotonic DTS; previous: 75634, current: 71013; changing to 75635. This may result in incorrect timestamps in the output file.
[vost#0:0/copy @ 0x56345c4e8440] Non-monotonic DTS; previous: 75635, current: 71525; changing to 75636. This may result in incorrect timestamps in the output file.
[vost#0:0/copy @ 0x56345c4e8440] Non-monotonic DTS; previous: 75636, current: 72037; changing to 75637. This may result in incorrect timestamps in the output file.
[vost#0:0/copy @ 0x56345c4e8440] Non-monotonic DTS; previous: 75637, current: 72549; changing to 75638. This may result in incorrect timestamps in the output file.
[vost#0:0/copy @ 0x56345c4e8440] Non-monotonic DTS; previous: 75638, current: 73061; changing to 75639. This may result in incorrect timestamps in the output file.
[vost#0:0/copy @ 0x56345c4e8440] Non-monotonic DTS; previous: 75639, current: 73573; changing to 75640. This may result in incorrect timestamps in the output file.
[vost#0:0/copy @ 0x56345c4e8440] Non-monotonic DTS; previous: 75640, current: 74085; changing to 75641. This may result in incorrect timestamps in the output file.
[vost#0:0/copy @ 0x56345c4e8440] Non-monotonic DTS; previous: 75641, current: 74597; changing to 75642. This may result in incorrect timestamps in the output file.
[vost#0:0/copy @ 0x56345c4e8440] Non-monotonic DTS; previous: 75642, current: 75109; changing to 75643. This may result in incorrect timestamps in the output file.
[vost#0:0/copy @ 0x56345c4e8440] Non-monotonic DTS; previous: 75643, current: 75621; changing to 75644. This may result in incorrect timestamps in the output file.
[mov,mp4,m4a,3gp,3g2,mj2 @ 0x56345c439340] Auto-inserting h264_mp4toannexb bitstream filter
[out#0/mp4 @ 0x56345c44bac0] video:1684KiB audio:443KiB subtitle:0KiB other streams:0KiB global headers:0KiB muxing overhead: 1.351410%
size=    2155KiB time=00:00:27.51 bitrate= 641.5kbits/s speed= 216x    
